HIERARCHY
ROOT Hips
{
	OFFSET 0.000000 0.000000 0.000000
	CHANNELS 6 Xposition Yposition Zposition Xrotation Yrotation Zrotation
	JOINT LeftUpLeg_virtual
	{
		OFFSET 0.000000 0.000000 0.000000
		CHANNELS 3 Xrotation Yrotation Zrotation
		JOINT LeftUpLeg
		{
			OFFSET 10.205400 -3.823500 0.155100
			CHANNELS 3 Xrotation Yrotation Zrotation
			JOINT LeftLeg
			{
				OFFSET 0.708757 -12.982077 0.567790
				CHANNELS 3 Xrotation Yrotation Zrotation
				JOINT LeftFoot
				{
					OFFSET -0.708756 -10.717838 -2.184338
					CHANNELS 3 Xrotation Yrotation Zrotation
					JOINT LeftToeBase
					{
						OFFSET 0.108149 -7.191104 7.560241
						CHANNELS 3 Xrotation Yrotation Zrotation
						JOINT LeftToe_End
						{
							OFFSET 0.070230 0.081724 4.490308
							CHANNELS 3 Xrotation Yrotation Zrotation
							End Site
							{
								OFFSET 0 0 0
							}
						}
					}
				}
			}
		}
	}
	JOINT RightUpLeg_virtual
	{
		OFFSET 0.000000 0.000000 0.000000
		CHANNELS 3 Xrotation Yrotation Zrotation
		JOINT RightUpLeg
		{
			OFFSET -10.205400 -3.823500 0.005500
			CHANNELS 3 Xrotation Yrotation Zrotation
			JOINT RightLeg
			{
				OFFSET -0.708756 -12.982134 0.610632
				CHANNELS 3 Xrotation Yrotation Zrotation
				JOINT RightFoot
				{
					OFFSET 0.708754 -10.717769 -1.945823
					CHANNELS 3 Xrotation Yrotation Zrotation
					JOINT RightToeBase
					{
						OFFSET -0.108140 -7.191069 7.372968
						CHANNELS 3 Xrotation Yrotation Zrotation
						JOINT RightToe_End
						{
							OFFSET -0.070227 0.081735 4.479403
							CHANNELS 3 Xrotation Yrotation Zrotation
							End Site
							{
								OFFSET 0 0 0
							}
						}
					}
				}
			}
		}
	}
	JOINT Spine_virtual
	{
		OFFSET 0.000000 0.000000 0.000000
		CHANNELS 3 Xrotation Yrotation Zrotation
		JOINT Spine
		{
			OFFSET 0.000000 6.876099 0.125700
			CHANNELS 3 Xrotation Yrotation Zrotation
			JOINT Spine1
			{
				OFFSET 0.000000 5.730043 0.104720
				CHANNELS 3 Xrotation Yrotation Zrotation
				JOINT Spine1_split
				{
					OFFSET 0.000000 5.730043 0.104720
					CHANNELS 3 Xrotation Yrotation Zrotation
					JOINT Spine2
					{
						OFFSET 0.000000 5.730043 0.104720
						CHANNELS 3 Xrotation Yrotation Zrotation
						JOINT Neck_virtual
						{
							OFFSET 0.000000 0.000000 0.000000
							CHANNELS 3 Xrotation Yrotation Zrotation
							JOINT Neck
							{
								OFFSET 0.000000 10.314075 0.188496
								CHANNELS 3 Xrotation Yrotation Zrotation
								JOINT Head
								{
									OFFSET 0.000000 7.643700 -2.377400
									CHANNELS 3 Xrotation Yrotation Zrotation
									JOINT HeadTop_End
									{
										OFFSET 0.000000 43.788605 -13.619600
										CHANNELS 3 Xrotation Yrotation Zrotation
										End Site
										{
											OFFSET 0 0 0
										}
									}
								}
							}
						}
						JOINT LeftShoulder_virtual
						{
							OFFSET 0.000000 0.000000 0.000000
							CHANNELS 3 Xrotation Yrotation Zrotation
							JOINT LeftShoulder
							{
								OFFSET 2.196100 4.412489 0.087492
								CHANNELS 3 Xrotation Yrotation Zrotation
								JOINT LeftShoulder_split
								{
									OFFSET 2.196100 4.412489 0.087492
									CHANNELS 3 Xrotation Yrotation Zrotation
									JOINT LeftArm
									{
										OFFSET 8.771219 -2.981674 -0.026999
										CHANNELS 3 Xrotation Yrotation Zrotation
										JOINT LeftForeArm
										{
											OFFSET 8.512804 0.000000 -0.000000
											CHANNELS 3 Xrotation Yrotation Zrotation
											JOINT LeftHand
											{
												OFFSET 18.484802 0.000000 -0.000000
												CHANNELS 3 Xrotation Yrotation Zrotation
												End Site
												{
													OFFSET 0 0 0
												}
											}
										}
									}
								}
							}
						}
						JOINT RightShoulder_virtual
						{
							OFFSET 0.000000 0.000000 0.000000
							CHANNELS 3 Xrotation Yrotation Zrotation
							JOINT RightShoulder
							{
								OFFSET -2.196100 4.412496 0.070690
								CHANNELS 3 Xrotation Yrotation Zrotation
								JOINT RightShoulder_split
								{
									OFFSET -2.196100 4.412496 0.070690
									CHANNELS 3 Xrotation Yrotation Zrotation
									JOINT RightArm
									{
										OFFSET -8.771282 -2.981682 -0.094208
										CHANNELS 3 Xrotation Yrotation Zrotation
										JOINT RightForeArm
										{
											OFFSET -8.494598 0.000000 0.000000
											CHANNELS 3 Xrotation Yrotation Zrotation
											JOINT RightHand
											{
												OFFSET -18.483803 0.000000 0.000001
												CHANNELS 3 Xrotation Yrotation Zrotation
												End Site
												{
													OFFSET 0 0 0
												}
											}
										}
									}
								}
							}
						}
					}
				}
			}
		}
	}
}
MOTION
Frames: 4
Frame Time: 0.03333333
-0.528328 31.125553 6.771613 0.000000 0.000000 0.000000 -19.792358 -13.948393 -7.652427 -97.586915 24.732941 30.613697 130.229687 -10.013705 3.768269 -41.724994 -7.975908 39.238009 -32.178712 -2.325935 -5.382841 0.000000 0.000000 0.000000 -19.063184 -19.281361 -7.949873 -118.185523 -27.680332 -8.000290 126.341465 -2.226402 -18.037657 7.100316 -9.443294 15.773239 -35.516417 10.281082 6.254507 0.000000 0.000000 0.000000 -12.689398 -21.344823 -8.972845 3.638561 6.495152 0.760320 15.171288 1.698486 -1.595131 0.091834 -12.426302 1.839084 0.000000 0.000000 0.000000 20.214939 1.071658 -0.945372 -25.570154 -2.076261 -4.310222 -8.914799 12.019950 2.650905 0.000000 0.000000 0.000000 16.225143 1.497875 -1.151512 2.700036 -4.715537 38.826787 0.877705 -2.969404 -0.241378 -47.110246 -27.073594 -6.723405 -18.510637 -36.237630 0.719658 0.000000 0.000000 0.000000 16.257382 0.946022 -1.242082 11.196125 19.692267 -36.237299 5.747535 1.995040 -0.211085 -56.938011 21.903592 12.319712 -15.951167 39.253596 5.445113 0.000000 0.000000 0.000000 
-0.625613 30.570034 6.732792 0.000000 0.000000 0.000000 -21.356509 -13.786229 -7.589785 -99.473215 24.294611 30.450496 131.182744 -10.467955 4.385772 -39.623095 -6.829616 37.102349 -33.839441 -2.585678 -4.695172 0.000000 0.000000 0.000000 -20.793271 -17.637568 -7.827361 -118.966063 -26.256519 -8.320286 127.517938 -2.050256 -16.954783 7.392123 -8.901988 15.180777 -36.937363 9.729692 7.043417 0.000000 0.000000 0.000000 -15.287526 -20.868241 -9.020588 3.848263 6.041700 0.746809 14.996589 1.670965 -1.359402 0.543620 -9.278983 2.655253 0.000000 0.000000 0.000000 19.847270 0.922336 -0.719108 -24.107988 -1.545436 -3.868870 -8.486725 13.158143 2.684747 0.000000 0.000000 0.000000 16.217726 1.377643 -0.778601 2.757345 -4.994244 39.046938 -1.342992 -2.877409 0.806816 -50.499342 -26.319710 -5.686031 -18.596476 -34.101202 1.552490 0.000000 0.000000 0.000000 15.637629 0.625708 -1.169504 11.247032 21.123612 -36.009823 5.759189 -1.644609 0.037847 -59.266979 19.583160 12.940670 -18.308711 42.144583 6.986865 0.000000 0.000000 0.000000 
-0.730231 30.051823 6.883751 0.000000 0.000000 0.000000 -22.992061 -13.368417 -7.300791 -100.821945 23.178631 30.274448 132.025890 -10.894205 5.887226 -34.395286 -5.443728 33.079330 -37.859192 -2.986780 -4.047398 0.000000 0.000000 0.000000 -23.213738 -15.698456 -7.536772 -118.726774 -23.669672 -9.364965 129.049731 -1.896631 -15.445747 7.597074 -7.987338 12.814713 -38.038946 9.353355 9.159705 0.000000 0.000000 0.000000 -18.119097 -20.117431 -9.055167 4.065939 5.095702 0.514933 14.276683 1.425497 -0.871305 4.376701 -6.401024 3.082103 0.000000 0.000000 0.000000 18.582612 0.737091 -0.341091 -22.649355 -1.091717 -2.801233 -8.124904 13.703553 2.159988 0.000000 0.000000 0.000000 15.106447 1.111998 -0.230003 2.954540 -5.651064 39.713438 -1.873912 -3.280630 1.628990 -54.970220 -24.229545 -7.217433 -18.458933 -34.370349 2.290237 0.000000 0.000000 0.000000 14.112708 0.276344 -0.808332 11.023256 22.376755 -35.584766 5.566368 -4.802886 0.783034 -59.606371 18.039778 12.631557 -21.285122 44.987482 8.113597 0.000000 0.000000 0.000000 
-0.698107 29.826254 6.991139 0.000000 0.000000 0.000000 -24.813568 -12.687975 -6.766922 -100.660808 21.639224 30.405854 131.281399 -11.207430 7.352051 -28.060056 -4.454817 28.304422 -42.802323 -3.275419 -4.013485 0.000000 0.000000 0.000000 -25.934969 -13.782569 -7.065434 -116.796699 -20.515943 -10.759517 129.824889 -1.612350 -14.104251 7.795008 -6.617335 9.570203 -39.842385 9.137192 12.164916 0.000000 0.000000 0.000000 -20.780133 -19.465069 -9.098572 4.509915 3.930499 0.239037 13.467752 1.085351 -0.300560 7.016771 -2.088605 2.126891 0.000000 0.000000 0.000000 16.954922 0.576647 0.074616 -21.737634 -1.018256 -1.255357 -7.872176 13.643218 1.243444 0.000000 0.000000 0.000000 13.733050 0.732091 0.368979 3.185425 -6.404022 40.238803 -1.139409 -3.436976 2.663319 -59.058754 -21.186852 -10.866494 -18.199413 -35.974470 2.934339 0.000000 0.000000 0.000000 12.436065 0.009579 -0.229481 10.713465 23.387814 -35.146767 4.979165 -5.903946 1.178431 -58.038699 17.517367 12.653317 -23.848656 47.843382 8.355944 0.000000 0.000000 0.000000 
